<?xml version="1.0" encoding="UTF-8" standalone="no"?>
<svg
   xmlns:dc="http://purl.org/dc/elements/1.1/"
   xmlns:cc="http://creativecommons.org/ns#"
   xmlns:rdf="http://www.w3.org/1999/02/22-rdf-syntax-ns#"
   xmlns:svg="http://www.w3.org/2000/svg"
   xmlns="http://www.w3.org/2000/svg"
   xmlns:sodipodi="http://sodipodi.sourceforge.net/DTD/sodipodi-0.dtd"
   xmlns:inkscape="http://www.inkscape.org/namespaces/inkscape"
   width="1763.8889mm"
   height="1763.8889mm"
   viewBox="0 0 1763.8889 1763.8889"
   version="1.1"
   id="svg22"
   inkscape:version="1.0.1 (3bc2e813f5, 2020-09-07)"
   sodipodi:docname="safari-pinned-tab.svg">
  <defs
     id="defs16" />
  <sodipodi:namedview
     id="base"
     pagecolor="#ffffff"
     bordercolor="#666666"
     borderopacity="1.0"
     inkscape:pageopacity="0.0"
     inkscape:pageshadow="2"
     inkscape:zoom="0.045873552"
     inkscape:cx="3333.3333"
     inkscape:cy="3333.3333"
     inkscape:document-units="mm"
     inkscape:current-layer="text26"
     inkscape:document-rotation="0"
     showgrid="false"
     units="mm"
     inkscape:window-width="1920"
     inkscape:window-height="1043"
     inkscape:window-x="0"
     inkscape:window-y="27"
     inkscape:window-maximized="1" />
  <metadata
     id="metadata19">
    <rdf:RDF>
      <cc:Work
         rdf:about="">
        <dc:format>image/svg+xml</dc:format>
        <dc:type
           rdf:resource="http://purl.org/dc/dcmitype/StillImage" />
        <dc:title></dc:title>
      </cc:Work>
    </rdf:RDF>
  </metadata>
  <g
     inkscape:label="图层 1"
     inkscape:groupmode="layer"
     id="layer1">
    <g
       aria-label="石"
       id="text26"
       style="font-size:1763px;line-height:1.25;font-family:'方正小篆体';-inkscape-font-specification:'方正小篆体';text-align:center;letter-spacing:0px;word-spacing:0px;writing-mode:lr-tb;text-anchor:middle;stroke-width:0.264583">
      <path
         d="m 891.20923,425.22266 q 0,13.77343 -6.88672,41.32031 0,27.54687 -6.88672,41.32031 0,41.32031 34.43359,34.43359 68.86719,-6.88671 247.92192,-6.88671 27.5468,6.88671 27.5468,-34.4336 0,-48.20703 0,-89.52734 6.8868,-41.32031 27.5469,-48.20703 13.7734,0 34.4336,34.43359 61.9805,185.94141 6.8867,426.97656 Q 1221.7717,955.5 1056.4905,948.61328 946.30298,976.16016 863.66235,852.19922 760.36157,673.14453 829.22876,418.33594 q 13.77344,-34.4336 34.43359,-34.4336 27.54688,6.88672 27.54688,41.32032 z M 1269.9788,239.28125 q -316.7891,-20.66016 -544.05082,13.77344 -75.75391,20.66015 -68.86719,110.1875 41.32031,261.69531 -6.88672,812.63281 -20.66015,96.4141 -27.54687,199.7148 -13.77344,151.5079 -55.09375,254.8086 -20.66016,34.4336 -34.4336,27.5469 -20.66015,-6.8867 -13.77343,-48.207 6.88671,-55.0938 34.43359,-247.9219 20.66016,-117.0742 20.66016,-144.6211 6.88671,-55.0937 13.77343,-158.3945 20.66016,-241.03518 20.66016,-330.56252 6.88672,-268.58203 -48.20703,-371.88281 -41.32031,-61.98047 6.88672,-117.07422 75.7539,-89.52734 364.99609,-96.41406 213.48826,0 337.44926,20.66015 48.207,6.88672 55.0937,41.32032 -6.8867,34.43359 -55.0937,34.43359 z M 1166.678,624.9375 q -130.8477,-13.77344 -241.03518,13.77344 -41.32031,6.88672 -27.54687,55.09375 0,34.43359 20.66015,75.7539 20.66016,55.09375 61.98047,68.86719 61.98043,20.66016 151.50783,6.88672 41.3203,-6.88672 55.0937,-55.09375 13.7735,-61.98047 13.7735,-123.96094 6.8867,-34.43359 -27.5469,-41.32031 0,0 -6.8867,0 z"
         style="stroke-width:0.264583"
         id="path28" />
    </g>
  </g>
</svg>
